<mxfile host="Electron" modified="2023-11-06T14:24:51.364Z" agent="Mozilla/5.0 (Windows NT 10.0; Win64; x64) AppleWebKit/537.36 (KHTML, like Gecko) draw.io/22.0.3 Chrome/114.0.5735.289 Electron/25.8.4 Safari/537.36" etag="rQDiv1sRDz_iLhI3zrNh" version="22.0.3" type="device">
  <diagram id="C5RBs43oDa-KdzZeNtuy" name="Page-1">
    <mxGraphModel dx="1036" dy="606" grid="1" gridSize="10" guides="1" tooltips="1" connect="1" arrows="1" fold="1" page="1" pageScale="1" pageWidth="827" pageHeight="1169" math="0" shadow="0">
      <root>
        <mxCell id="WIyWlLk6GJQsqaUBKTNV-0" />
        <mxCell id="WIyWlLk6GJQsqaUBKTNV-1" parent="WIyWlLk6GJQsqaUBKTNV-0" />
        <mxCell id="E8jJt5HHEnCwKzbaVch_-18" style="edgeStyle=orthogonalEdgeStyle;rounded=0;orthogonalLoop=1;jettySize=auto;html=1;exitX=0.5;exitY=1;exitDx=0;exitDy=0;" edge="1" parent="WIyWlLk6GJQsqaUBKTNV-1" target="E8jJt5HHEnCwKzbaVch_-16">
          <mxGeometry relative="1" as="geometry">
            <mxPoint x="270" y="600" as="targetPoint" />
            <mxPoint x="580" y="530" as="sourcePoint" />
            <Array as="points">
              <mxPoint x="580" y="600" />
              <mxPoint x="290" y="600" />
            </Array>
          </mxGeometry>
        </mxCell>
        <mxCell id="E8jJt5HHEnCwKzbaVch_-83" value="" style="edgeStyle=orthogonalEdgeStyle;rounded=0;orthogonalLoop=1;jettySize=auto;html=1;" edge="1" parent="WIyWlLk6GJQsqaUBKTNV-1" source="E8jJt5HHEnCwKzbaVch_-81" target="E8jJt5HHEnCwKzbaVch_-82">
          <mxGeometry relative="1" as="geometry" />
        </mxCell>
        <mxCell id="E8jJt5HHEnCwKzbaVch_-81" value="begin" style="ellipse;whiteSpace=wrap;html=1;" vertex="1" parent="WIyWlLk6GJQsqaUBKTNV-1">
          <mxGeometry x="370" y="40" width="120" height="80" as="geometry" />
        </mxCell>
        <mxCell id="E8jJt5HHEnCwKzbaVch_-85" value="" style="edgeStyle=orthogonalEdgeStyle;rounded=0;orthogonalLoop=1;jettySize=auto;html=1;" edge="1" parent="WIyWlLk6GJQsqaUBKTNV-1" source="E8jJt5HHEnCwKzbaVch_-82" target="E8jJt5HHEnCwKzbaVch_-84">
          <mxGeometry relative="1" as="geometry" />
        </mxCell>
        <mxCell id="E8jJt5HHEnCwKzbaVch_-82" value="a,b,n" style="whiteSpace=wrap;html=1;" vertex="1" parent="WIyWlLk6GJQsqaUBKTNV-1">
          <mxGeometry x="370" y="210" width="120" height="60" as="geometry" />
        </mxCell>
        <mxCell id="E8jJt5HHEnCwKzbaVch_-87" value="" style="edgeStyle=orthogonalEdgeStyle;rounded=0;orthogonalLoop=1;jettySize=auto;html=1;" edge="1" parent="WIyWlLk6GJQsqaUBKTNV-1" source="E8jJt5HHEnCwKzbaVch_-84" target="E8jJt5HHEnCwKzbaVch_-86">
          <mxGeometry relative="1" as="geometry" />
        </mxCell>
        <mxCell id="E8jJt5HHEnCwKzbaVch_-84" value="a,b" style="shape=parallelogram;perimeter=parallelogramPerimeter;whiteSpace=wrap;html=1;fixedSize=1;" vertex="1" parent="WIyWlLk6GJQsqaUBKTNV-1">
          <mxGeometry x="370" y="350" width="120" height="60" as="geometry" />
        </mxCell>
        <mxCell id="E8jJt5HHEnCwKzbaVch_-89" value="" style="edgeStyle=orthogonalEdgeStyle;rounded=0;orthogonalLoop=1;jettySize=auto;html=1;" edge="1" parent="WIyWlLk6GJQsqaUBKTNV-1" source="E8jJt5HHEnCwKzbaVch_-86">
          <mxGeometry relative="1" as="geometry">
            <mxPoint x="530" y="520" as="targetPoint" />
          </mxGeometry>
        </mxCell>
        <mxCell id="E8jJt5HHEnCwKzbaVch_-93" value="" style="edgeStyle=orthogonalEdgeStyle;rounded=0;orthogonalLoop=1;jettySize=auto;html=1;" edge="1" parent="WIyWlLk6GJQsqaUBKTNV-1" source="E8jJt5HHEnCwKzbaVch_-86" target="E8jJt5HHEnCwKzbaVch_-92">
          <mxGeometry relative="1" as="geometry" />
        </mxCell>
        <mxCell id="E8jJt5HHEnCwKzbaVch_-86" value="a=0" style="rhombus;whiteSpace=wrap;html=1;" vertex="1" parent="WIyWlLk6GJQsqaUBKTNV-1">
          <mxGeometry x="390" y="480" width="80" height="80" as="geometry" />
        </mxCell>
        <mxCell id="E8jJt5HHEnCwKzbaVch_-95" value="" style="edgeStyle=orthogonalEdgeStyle;rounded=0;orthogonalLoop=1;jettySize=auto;html=1;" edge="1" parent="WIyWlLk6GJQsqaUBKTNV-1" source="E8jJt5HHEnCwKzbaVch_-90">
          <mxGeometry relative="1" as="geometry">
            <mxPoint x="570" y="390" as="targetPoint" />
          </mxGeometry>
        </mxCell>
        <mxCell id="E8jJt5HHEnCwKzbaVch_-104" value="" style="edgeStyle=orthogonalEdgeStyle;rounded=0;orthogonalLoop=1;jettySize=auto;html=1;fontFamily=Helvetica;fontSize=12;fontColor=default;" edge="1" parent="WIyWlLk6GJQsqaUBKTNV-1" source="E8jJt5HHEnCwKzbaVch_-90" target="E8jJt5HHEnCwKzbaVch_-103">
          <mxGeometry relative="1" as="geometry" />
        </mxCell>
        <mxCell id="E8jJt5HHEnCwKzbaVch_-90" value="b=0" style="rhombus;whiteSpace=wrap;html=1;" vertex="1" parent="WIyWlLk6GJQsqaUBKTNV-1">
          <mxGeometry x="530" y="480" width="80" height="80" as="geometry" />
        </mxCell>
        <mxCell id="E8jJt5HHEnCwKzbaVch_-91" value="true" style="text;html=1;align=center;verticalAlign=middle;resizable=0;points=[];autosize=1;strokeColor=none;fillColor=none;" vertex="1" parent="WIyWlLk6GJQsqaUBKTNV-1">
          <mxGeometry x="470" y="498" width="40" height="30" as="geometry" />
        </mxCell>
        <mxCell id="E8jJt5HHEnCwKzbaVch_-111" value="" style="edgeStyle=orthogonalEdgeStyle;rounded=0;orthogonalLoop=1;jettySize=auto;html=1;fontFamily=Helvetica;fontSize=12;fontColor=default;" edge="1" parent="WIyWlLk6GJQsqaUBKTNV-1" source="E8jJt5HHEnCwKzbaVch_-92" target="E8jJt5HHEnCwKzbaVch_-110">
          <mxGeometry relative="1" as="geometry" />
        </mxCell>
        <mxCell id="E8jJt5HHEnCwKzbaVch_-92" value="n=-b/a" style="whiteSpace=wrap;html=1;" vertex="1" parent="WIyWlLk6GJQsqaUBKTNV-1">
          <mxGeometry x="210" y="490" width="120" height="60" as="geometry" />
        </mxCell>
        <mxCell id="E8jJt5HHEnCwKzbaVch_-96" value="false" style="text;html=1;align=center;verticalAlign=middle;resizable=0;points=[];autosize=1;strokeColor=none;fillColor=none;" vertex="1" parent="WIyWlLk6GJQsqaUBKTNV-1">
          <mxGeometry x="555" y="428" width="50" height="30" as="geometry" />
        </mxCell>
        <mxCell id="E8jJt5HHEnCwKzbaVch_-97" value="false" style="text;html=1;align=center;verticalAlign=middle;resizable=0;points=[];autosize=1;strokeColor=none;fillColor=none;" vertex="1" parent="WIyWlLk6GJQsqaUBKTNV-1">
          <mxGeometry x="335" y="488" width="50" height="30" as="geometry" />
        </mxCell>
        <mxCell id="E8jJt5HHEnCwKzbaVch_-107" style="edgeStyle=orthogonalEdgeStyle;rounded=0;orthogonalLoop=1;jettySize=auto;html=1;exitX=1;exitY=0.5;exitDx=0;exitDy=0;fontFamily=Helvetica;fontSize=12;fontColor=default;entryX=0.5;entryY=1;entryDx=0;entryDy=0;" edge="1" parent="WIyWlLk6GJQsqaUBKTNV-1" source="E8jJt5HHEnCwKzbaVch_-102">
          <mxGeometry relative="1" as="geometry">
            <mxPoint x="510" y="700" as="targetPoint" />
            <Array as="points">
              <mxPoint x="860" y="360" />
              <mxPoint x="860" y="720" />
              <mxPoint x="510" y="720" />
            </Array>
          </mxGeometry>
        </mxCell>
        <mxCell id="E8jJt5HHEnCwKzbaVch_-102" value="vo nghiem" style="shape=parallelogram;perimeter=parallelogramPerimeter;whiteSpace=wrap;html=1;fixedSize=1;strokeColor=default;align=center;verticalAlign=middle;fontFamily=Helvetica;fontSize=12;fontColor=default;fillColor=default;" vertex="1" parent="WIyWlLk6GJQsqaUBKTNV-1">
          <mxGeometry x="530" y="330" width="120" height="60" as="geometry" />
        </mxCell>
        <mxCell id="E8jJt5HHEnCwKzbaVch_-108" style="edgeStyle=orthogonalEdgeStyle;rounded=0;orthogonalLoop=1;jettySize=auto;html=1;exitX=0.5;exitY=1;exitDx=0;exitDy=0;fontFamily=Helvetica;fontSize=12;fontColor=default;" edge="1" parent="WIyWlLk6GJQsqaUBKTNV-1" source="E8jJt5HHEnCwKzbaVch_-103">
          <mxGeometry relative="1" as="geometry">
            <mxPoint x="549.6862696659689" y="690" as="targetPoint" />
            <Array as="points">
              <mxPoint x="730" y="690" />
            </Array>
          </mxGeometry>
        </mxCell>
        <mxCell id="E8jJt5HHEnCwKzbaVch_-103" value="vo so nghiem" style="shape=parallelogram;perimeter=parallelogramPerimeter;whiteSpace=wrap;html=1;fixedSize=1;" vertex="1" parent="WIyWlLk6GJQsqaUBKTNV-1">
          <mxGeometry x="670" y="490" width="120" height="60" as="geometry" />
        </mxCell>
        <mxCell id="E8jJt5HHEnCwKzbaVch_-109" value="end" style="ellipse;whiteSpace=wrap;html=1;strokeColor=default;align=center;verticalAlign=middle;fontFamily=Helvetica;fontSize=12;fontColor=default;fillColor=default;" vertex="1" parent="WIyWlLk6GJQsqaUBKTNV-1">
          <mxGeometry x="450" y="620" width="120" height="80" as="geometry" />
        </mxCell>
        <mxCell id="E8jJt5HHEnCwKzbaVch_-112" style="edgeStyle=orthogonalEdgeStyle;rounded=0;orthogonalLoop=1;jettySize=auto;html=1;exitX=1;exitY=0.5;exitDx=0;exitDy=0;entryX=0;entryY=0.5;entryDx=0;entryDy=0;fontFamily=Helvetica;fontSize=12;fontColor=default;" edge="1" parent="WIyWlLk6GJQsqaUBKTNV-1" source="E8jJt5HHEnCwKzbaVch_-110" target="E8jJt5HHEnCwKzbaVch_-109">
          <mxGeometry relative="1" as="geometry" />
        </mxCell>
        <mxCell id="E8jJt5HHEnCwKzbaVch_-110" value="n" style="shape=parallelogram;perimeter=parallelogramPerimeter;whiteSpace=wrap;html=1;fixedSize=1;" vertex="1" parent="WIyWlLk6GJQsqaUBKTNV-1">
          <mxGeometry x="210" y="630" width="120" height="60" as="geometry" />
        </mxCell>
      </root>
    </mxGraphModel>
  </diagram>
</mxfile>
